<?xml version="1.0" standalone="no"?>
<!DOCTYPE svg PUBLIC "-//W3C//DTD SVG 20010904//EN"
 "http://www.w3.org/TR/2001/REC-SVG-20010904/DTD/svg10.dtd">
<svg version="1.0" xmlns="http://www.w3.org/2000/svg"
 width="1200.000000pt" height="1200.000000pt" viewBox="0 0 1200.000000 1200.000000"
 preserveAspectRatio="xMidYMid meet">
<metadata>
Created by potrace 1.14, written by Peter Selinger 2001-2017
</metadata>
<g transform="translate(0.000000,1200.000000) scale(0.100000,-0.100000)"
fill="#000000" stroke="none">
<path d="M2560 9655 l0 -495 490 0 490 0 0 -475 0 -475 -490 0 -490 0 0 -505
0 -505 -490 0 -490 0 0 -485 0 -485 -495 0 -495 0 0 -1480 0 -1480 500 0 500
0 0 980 0 980 485 0 485 0 0 -980 0 -980 490 0 490 0 0 -495 0 -495 990 0 990
0 0 495 0 495 -985 0 -985 0 0 490 0 490 2445 0 2445 0 0 -490 0 -490 -980 0
-980 0 0 -495 0 -495 985 0 985 0 0 495 0 495 490 0 490 0 0 980 0 980 490 0
490 0 0 -980 0 -980 495 0 495 0 0 1480 0 1480 -490 0 -490 0 0 485 0 485
-495 0 -495 0 0 505 0 505 -490 0 -490 0 0 475 0 475 490 0 490 0 0 495 0 495
-495 0 -495 0 0 -490 0 -490 -490 0 -490 0 0 -495 0 -495 -1460 0 -1460 0 0
495 0 495 -490 0 -490 0 0 490 0 490 -500 0 -500 0 0 -495z m1960 -2945 l0
-480 -485 0 -485 0 0 480 0 480 485 0 485 0 0 -480z m3920 0 l0 -480 -485 0
-485 0 0 480 0 480 485 0 485 0 0 -480z"/>
</g>
</svg>
